<svg width="48" height="48" viewBox="0 0 48 48" fill="none" xmlns="http://www.w3.org/2000/svg">
<g clip-path="url(#clip0_2470_144)">
<path d="M18.8505 19.2115L16.8579 19.3655C16.3034 19.4083 15.8096 19.6989 15.503 20.1628L13.2049 23.6384C12.9724 23.9902 12.9354 24.4303 13.106 24.816C13.2766 25.2016 13.6272 25.4703 14.0439 25.5348L15.8683 25.8174C16.2951 23.5524 17.3168 21.2931 18.8505 19.2115Z" fill="#FFD050"/>
<path d="M23.1836 33.1316L23.4662 34.9561C23.5307 35.3728 23.7995 35.7234 24.185 35.8939C24.3454 35.9649 24.5152 35.9999 24.6842 35.9999C24.9215 35.9999 25.1572 35.9308 25.3626 35.795L28.8384 33.497C29.3022 33.1903 29.5928 32.6964 29.6355 32.142L29.7895 30.1494C27.7079 31.6832 25.4486 32.7049 23.1836 33.1316Z" fill="#FFD050"/>
<path d="M22.4968 31.8667C22.5602 31.8667 22.6239 31.8614 22.6874 31.8508C23.6363 31.6922 24.551 31.4249 25.4234 31.075L17.9247 23.5763C17.5748 24.4487 17.3075 25.3633 17.1489 26.3123C17.0863 26.6863 17.2118 27.0674 17.4799 27.3356L21.6641 31.5198C21.8867 31.7424 22.1872 31.8667 22.4968 31.8667Z" fill="#FFD050"/>
<path d="M34.1661 23.1973C36.0011 19.6497 36.069 15.9007 35.9731 14.1425C35.9403 13.54 35.46 13.0597 34.8575 13.0269C34.5712 13.0113 34.2319 13 33.8495 13C31.8835 13 28.7726 13.2978 25.8027 14.834C23.4424 16.0548 20.3475 18.7429 18.5215 22.2757C18.543 22.2925 18.5641 22.3104 18.584 22.3302L26.6698 30.4161C26.6897 30.436 26.7075 30.457 26.7244 30.4786C30.2571 28.6525 32.9453 25.5576 34.1661 23.1973ZM26.3731 17.8623C27.6866 16.5488 29.8241 16.5486 31.1377 17.8623C31.7741 18.4986 32.1245 19.3447 32.1245 20.2446C32.1245 21.1445 31.7741 21.9906 31.1377 22.627C30.481 23.2837 29.618 23.6121 28.7554 23.6122C27.8925 23.6122 27.03 23.2838 26.3731 22.627C25.7367 21.9906 25.3863 21.1445 25.3863 20.2446C25.3863 19.3447 25.7367 18.4986 26.3731 17.8623Z" fill="#232536"/>
<path d="M27.3264 21.674C28.1146 22.4622 29.3971 22.4622 30.1853 21.674C30.5671 21.2922 30.7773 20.7846 30.7773 20.2446C30.7773 19.7047 30.5671 19.197 30.1853 18.8152C29.7912 18.4211 29.2735 18.2241 28.7559 18.2241C28.2382 18.2241 27.7205 18.4211 27.3265 18.8152C26.9447 19.197 26.7344 19.7047 26.7344 20.2446C26.7344 20.7846 26.9447 21.2922 27.3264 21.674Z" fill="#232536"/>
<path d="M13.6875 31.954C13.86 31.954 14.0324 31.8882 14.164 31.7566L16.3639 29.5566C16.6271 29.2935 16.6271 28.8668 16.3639 28.6037C16.1008 28.3405 15.6741 28.3405 15.411 28.6037L13.211 30.8036C12.9479 31.0668 12.9479 31.4934 13.211 31.7566C13.3426 31.8881 13.5151 31.954 13.6875 31.954Z" fill="#FFD050"/>
<path d="M18.3802 30.6201C18.117 30.3569 17.6904 30.3569 17.4272 30.6201L13.1976 34.8497C12.9345 35.1129 12.9345 35.5395 13.1976 35.8026C13.3292 35.9342 13.5016 36 13.6741 36C13.8465 36 14.019 35.9342 14.1505 35.8026L18.3801 31.573C18.6433 31.3099 18.6433 30.8832 18.3802 30.6201Z" fill="#FFD050"/>
<path d="M19.4422 32.6358L17.2423 34.8358C16.9791 35.099 16.9791 35.5256 17.2423 35.7887C17.3739 35.9203 17.5463 35.9861 17.7187 35.9861C17.8911 35.9861 18.0636 35.9203 18.1952 35.7887L20.3951 33.5888C20.6583 33.3256 20.6583 32.899 20.3951 32.6358C20.132 32.3727 19.7054 32.3727 19.4422 32.6358Z" fill="#FFD050"/>
</g>
<defs>
<clipPath id="clip0_2470_144">
<rect width="23" height="23" fill="white" transform="translate(13 13)"/>
</clipPath>
</defs>
</svg>
